<?xml version="1.0" encoding="UTF-8"?>
<svg version="1.1" xmlns="http://www.w3.org/2000/svg" width="1024" height="1024">
<path d="M0 0 C4.07837693 0.55879602 7.96512555 0.63572055 12.0703125 0.5859375 C12.77671875 0.58142578 13.483125 0.57691406 14.2109375 0.57226562 C16.08075892 0.55987098 17.95054184 0.54197047 19.8203125 0.5234375 C22.54505989 0.5234375 25.26965405 0.53045872 27.99438477 0.53930664 C33.85652143 0.5572513 39.71865461 0.56883966 45.58081055 0.57836914 C48.11727307 0.58341829 50.65373265 0.59025675 53.19018555 0.59887695 C56.83903723 0.61095689 60.48785078 0.61666752 64.13671875 0.62109375 C65.27629532 0.62625504 66.41587189 0.63141632 67.58998108 0.63673401 C68.6412468 0.63680954 69.69251251 0.63688507 70.77563477 0.63696289 C71.70368423 0.6391835 72.6317337 0.64140411 73.58790588 0.64369202 C75.85918096 0.67002628 75.85918096 0.67002628 77.8203125 -0.4765625 C79.49325186 -0.17629133 81.16016634 0.15901517 82.8203125 0.5234375 C83.8103125 0.5234375 84.8003125 0.5234375 85.8203125 0.5234375 C86.1503125 0.1934375 86.4803125 -0.1365625 86.8203125 -0.4765625 C89.15328683 -0.51749187 91.48736475 -0.51897973 93.8203125 -0.4765625 C93.8203125 0.1834375 93.8203125 0.8434375 93.8203125 1.5234375 C94.9546875 1.3584375 96.0890625 1.1934375 97.2578125 1.0234375 C117.15347774 -1.10043257 135.58220546 0.96406348 152.0703125 13.2109375 C161.66133324 21.27541313 167.47116235 31.6440174 170.8203125 43.5234375 C171.97130432 43.52930374 173.12229614 43.53516998 174.3081665 43.54121399 C185.19451029 43.59861123 196.08065758 43.67146085 206.96680069 43.75915241 C212.56248768 43.8037387 218.15810383 43.84302041 223.75390625 43.86987305 C229.16164489 43.89602349 234.56910918 43.93650802 239.97667694 43.98662376 C242.03212807 44.00321341 244.08762657 44.01477659 246.14313507 44.02105141 C260.16044292 44.06814182 272.54530072 44.75269095 285.1953125 51.3984375 C285.85402344 51.72457031 286.51273438 52.05070312 287.19140625 52.38671875 C300.8993744 59.39059114 311.21630417 73.15532242 315.96191406 87.63208008 C318.73196026 96.47344659 319.969131 104.50009665 319.96075439 113.74888611 C319.96521108 115.29040882 319.96521108 115.29040882 319.9697578 116.86307341 C319.97842738 120.30577791 319.9799516 123.74844756 319.98144531 127.19116211 C319.98607482 129.66028925 319.99109967 132.12941567 319.99649048 134.59854126 C320.00960621 141.30765817 320.0160953 148.01676147 320.02050114 154.72588801 C320.02326861 158.9208169 320.02750697 163.11574351 320.03200531 167.31067085 C320.04419676 178.94056395 320.05449508 190.57045523 320.0578804 202.20035458 C320.05809997 202.94417607 320.05831953 203.68799755 320.05854575 204.45435909 C320.05876403 205.19990044 320.05898231 205.94544179 320.0592072 206.7135753 C320.05965066 208.22417065 320.06009722 209.73476599 320.06054688 211.24536133 C320.0607683 211.9946592 320.06098973 212.74395707 320.06121787 213.51596094 C320.06516049 225.63991076 320.08259865 237.76380028 320.1059064 249.88772684 C320.12968006 262.35541842 320.14208505 274.82307983 320.14324832 287.29079443 C320.14416191 294.28266629 320.14983378 301.27445964 320.16806793 308.26630974 C320.18517754 314.84991127 320.18667678 321.43339088 320.17792892 328.01701736 C320.17716148 330.42472419 320.18146233 332.83243917 320.19138718 335.24012566 C320.28475108 359.31425682 317.55328902 379.96731577 300.8203125 398.5234375 C295.6216833 403.73087794 289.65282047 407.40563243 283.1953125 410.8359375 C282.60540527 411.16182861 282.01549805 411.48771973 281.40771484 411.82348633 C269.16310665 417.94579042 254.77665035 417.96557255 241.40075684 417.91111755 C239.70305452 417.91530109 238.00535501 417.92078415 236.30766058 417.92743737 C231.6885963 417.94177662 227.06971219 417.93768371 222.45063853 417.93027055 C217.45123204 417.92551249 212.45186307 417.9380718 207.45246887 417.94828796 C197.67683339 417.96542889 187.90126232 417.96632591 178.12561572 417.96107506 C170.17656658 417.95702393 162.2275364 417.95848808 154.27848816 417.96382332 C153.14460209 417.96457174 152.01071603 417.96532016 150.84246978 417.96609126 C148.53857902 417.96762283 146.23468827 417.96916118 143.93079752 417.97070623 C122.3570208 417.98441382 100.78328042 417.97900546 79.20950454 417.96752102 C59.49515573 417.95758678 39.78090075 417.97053574 20.06656641 417.99445521 C-0.20644961 418.01886613 -20.47942196 418.0284494 -40.75245237 418.02180248 C-52.12217152 418.01831518 -63.4918185 418.02051027 -74.86152649 418.03805351 C-84.53827972 418.05280025 -94.21490993 418.05337842 -103.89166081 418.0359826 C-108.82333014 418.02749133 -113.75477993 418.02527724 -118.68643761 418.04063416 C-123.2104468 418.05454675 -127.73404975 418.04963438 -132.25803584 418.03039492 C-133.88501742 418.02665471 -135.51203207 418.02949903 -137.13898402 418.04000657 C-158.34252165 418.16709258 -176.39418965 412.59834267 -192.07421875 397.7265625 C-203.49129833 385.6651782 -209.02576039 370.4118342 -209.76826477 354.01681519 C-209.80782738 353.19933111 -209.84738999 352.38184704 -209.88815147 351.53959072 C-210.3523888 340.9693254 -210.32772045 330.3951995 -210.32495117 319.81689453 C-210.3279509 317.50023851 -210.33135528 315.18358299 -210.33512878 312.8669281 C-210.3438839 306.63390538 -210.3463031 300.40089642 -210.34694457 294.16786814 C-210.34765919 290.26518902 -210.34980111 286.36251332 -210.35244179 282.45983505 C-210.36118877 269.52294699 -210.36586503 256.58606857 -210.36511131 243.64917769 C-210.36507136 242.9554178 -210.3650314 242.26165791 -210.36499023 241.546875 C-210.36494935 240.85225386 -210.36490847 240.15763273 -210.36486635 239.44196247 C-210.36445918 228.16461651 -210.37405442 216.88730382 -210.3881286 205.60996749 C-210.40252081 193.98486275 -210.40921458 182.35977576 -210.40853482 170.73466194 C-210.40828058 164.22596671 -210.41109208 157.71730933 -210.42171288 151.20862198 C-210.43142199 145.093526 -210.43145377 138.97850388 -210.42419624 132.86340523 C-210.42315435 130.62739389 -210.42548964 128.39137788 -210.4315567 126.15537453 C-210.49385019 101.59731484 -208.0564139 79.64822744 -190.03125 61.25390625 C-178.20591379 49.93074185 -163.02335315 44.24643674 -146.734375 44.20458984 C-145.37199959 44.18952141 -145.37199959 44.18952141 -143.98210144 44.17414856 C-141.00630272 44.14347476 -138.0305933 44.1263256 -135.0546875 44.109375 C-132.98103068 44.09065063 -130.90738138 44.07107628 -128.83374023 44.0506897 C-123.39557336 43.99949663 -117.95738183 43.95980239 -112.519104 43.92254639 C-106.96189333 43.88242616 -101.40478414 43.83137047 -95.84765625 43.78125 C-84.95840475 43.68464263 -74.06909579 43.60018944 -63.1796875 43.5234375 C-62.67981575 42.29394379 -62.67981575 42.29394379 -62.16984558 41.03961182 C-61.72731949 39.96209656 -61.2847934 38.8845813 -60.82885742 37.77441406 C-60.39248459 36.70725159 -59.95611176 35.64008911 -59.5065155 34.54058838 C-57.83863469 30.7478978 -55.89346247 27.64908381 -53.4921875 24.2734375 C-53.10224609 23.70753906 -52.71230469 23.14164063 -52.31054688 22.55859375 C-51.32659945 21.16929362 -50.25993219 19.83925618 -49.1796875 18.5234375 C-48.5196875 18.5234375 -47.8596875 18.5234375 -47.1796875 18.5234375 C-46.8496875 17.5334375 -46.5196875 16.5434375 -46.1796875 15.5234375 C-44.22901831 13.92583061 -42.32210741 12.49467966 -40.2421875 11.0859375 C-39.35756836 10.48543579 -39.35756836 10.48543579 -38.45507812 9.87280273 C-29.42297454 3.89502779 -20.87369709 1.86894854 -10.1796875 0.5234375 C-8.2615625 0.183125 -8.2615625 0.183125 -6.3046875 -0.1640625 C-3.1796875 -0.4765625 -3.1796875 -0.4765625 0 0 Z M229.0078125 99.5234375 C228.6159375 100.1834375 228.2240625 100.8434375 227.8203125 101.5234375 C227.3046875 102.0803125 226.7890625 102.6371875 226.2578125 103.2109375 C223.04758854 108.37521082 222.43326939 113.77302087 223.4453125 119.7109375 C225.18683809 126.83135225 228.85118736 131.3099374 234.8203125 135.5234375 C242.09868606 138.35391611 248.84584027 138.4816985 256 135.5078125 C258.8334079 133.97558334 260.74356381 131.95620025 262.8203125 129.5234375 C263.3771875 128.8840625 263.9340625 128.2446875 264.5078125 127.5859375 C267.69209686 122.58206207 268.51358304 117.3667178 267.8203125 111.5234375 C266.44072619 105.46021362 263.47399375 100.64308975 258.8203125 96.5234375 C254.02616038 93.82127903 250.30001844 93.08506103 244.8203125 93.5234375 C244.4903125 93.8534375 244.1603125 94.1834375 243.8203125 94.5234375 C243.8203125 94.1934375 243.8203125 93.8634375 243.8203125 93.5234375 C238.16442255 92.81645126 232.77762161 95.36364813 229.0078125 99.5234375 Z " fill="#BFBAB0" transform="translate(457.1796875,200.4765625)"/>
<path d="M0 0 C2.38515823 2.12053269 4.69004552 4.28554748 6.953125 6.53515625 C7.84 7.40140625 8.726875 8.26765625 9.640625 9.16015625 C10.40375 9.94390625 11.166875 10.72765625 11.953125 11.53515625 C12.48292969 12.03144531 13.01273438 12.52773438 13.55859375 13.0390625 C33.02810928 31.56303864 43.2964831 60.03939004 44.30078125 86.50390625 C44.54975366 98.80873081 44.3848804 110.64855188 40.953125 122.53515625 C40.78683594 123.16212402 40.62054687 123.7890918 40.44921875 124.43505859 C32.07186292 155.99752237 11.72895646 180.60826093 -16.30859375 196.953125 C-43.32471601 212.06289971 -76.90761656 215.10089041 -106.671875 206.97265625 C-125.55935329 201.28746211 -141.85088395 191.13567788 -156.046875 177.53515625 C-156.79453125 176.85066406 -157.5421875 176.16617188 -158.3125 175.4609375 C-174.71299069 159.94928459 -184.2981377 139.37078295 -189.046875 117.53515625 C-189.23088867 116.69645996 -189.41490234 115.85776367 -189.60449219 114.99365234 C-195.70478791 84.74771199 -188.54856909 52.39528773 -172.046875 26.53515625 C-153.49437116 -0.47826202 -127.13141311 -17.40280059 -95.30078125 -24.2734375 C-62.21547138 -29.81952991 -26.1527166 -21.15687715 0 0 Z " fill="#FEFEFE" transform="translate(585.046875,340.46484375)"/>
<path d="M0 0 C4.20086988 3.46298981 8.12476831 7.17911938 12 11 C12.74378906 11.73089844 13.48757813 12.46179688 14.25390625 13.21484375 C29.59691158 29.3385108 35.90641026 50.89209148 35.375 72.7265625 C34.24521 94.62027866 23.19526709 114.81855643 7.57421875 129.83984375 C-12.02626474 146.28759393 -35.77945804 152.72449499 -61.0703125 150.76171875 C-82.99213753 147.80496033 -101.86079939 135.56975152 -115.15625 118.1796875 C-128.0593165 98.76849535 -134.1561734 76.29061732 -129.97192383 53.20141602 C-125.0517157 29.59816201 -109.79544525 9.06644675 -89.81640625 -4.09765625 C-62.13553519 -21.26473647 -26.05838041 -19.80891418 0 0 Z " fill="#BEBAB0" transform="translate(560,366)"/>
<path d="M0 0 C1.02802734 0.00322266 2.05605469 0.00644531 3.11523438 0.00976562 C4.72301758 0.02233398 4.72301758 0.02233398 6.36328125 0.03515625 C7.44673828 0.03966797 8.53019531 0.04417969 9.64648438 0.04882812 C12.3229721 0.06061882 14.99934902 0.07707562 17.67578125 0.09765625 C23.46526474 15.77715479 29.20151032 31.47413459 34.80078125 47.22265625 C35.15978012 48.22946945 35.15978012 48.22946945 35.52603149 49.25662231 C36.20563433 51.16383049 36.88218008 53.07212717 37.55859375 54.98046875 C38.13697998 56.61072998 38.13697998 56.61072998 38.72705078 58.27392578 C39.48918256 60.54227786 40.14596844 62.76662059 40.67578125 65.09765625 C44.67515526 55.52937748 48.07252061 45.7383292 51.55078125 35.97265625 C55.82740097 23.97519009 60.17178581 12.01189495 64.67578125 0.09765625 C72.26578125 0.09765625 79.85578125 0.09765625 87.67578125 0.09765625 C88.59009343 4.66921714 88.81726112 8.81706459 88.80517578 13.4362793 C88.80780426 14.67613586 88.80780426 14.67613586 88.81048584 15.94104004 C88.81487514 18.66383992 88.81197747 21.3865745 88.80859375 24.109375 C88.80926744 26.0031587 88.810238 27.89694231 88.81149292 29.79072571 C88.81296577 33.75412827 88.81082786 37.71750827 88.80615234 41.6809082 C88.80044361 46.76881796 88.8037439 51.8566751 88.80972481 56.94458294 C88.81333159 60.85210062 88.81219149 64.75960574 88.80959702 68.66712379 C88.80892868 70.54387226 88.80975293 72.42062186 88.81207657 74.297369 C88.81460626 76.91401588 88.81075853 79.53057638 88.80517578 82.1472168 C88.80720001 82.9269838 88.80922424 83.70675079 88.81130981 84.51014709 C88.79004795 89.86912284 88.79004795 89.86912284 87.67578125 92.09765625 C82.06578125 92.09765625 76.45578125 92.09765625 70.67578125 92.09765625 C70.34578125 72.62765625 70.01578125 53.15765625 69.67578125 33.09765625 C65.00805703 46.19869731 65.00805703 46.19869731 60.34326172 59.30078125 C57.35482054 67.68671617 54.34994572 76.06613228 51.24609375 84.41015625 C50.99866425 85.08014648 50.75123474 85.75013672 50.49630737 86.44042969 C48.79489155 90.97854595 48.79489155 90.97854595 47.67578125 92.09765625 C45.14528723 92.17079192 42.64273288 92.19013152 40.11328125 92.16015625 C39.0469043 92.15338867 39.0469043 92.15338867 37.95898438 92.14648438 C36.19788112 92.13466489 34.43682089 92.11672888 32.67578125 92.09765625 C31.35578125 88.13765625 30.03578125 84.17765625 28.67578125 80.09765625 C28.01578125 80.09765625 27.35578125 80.09765625 26.67578125 80.09765625 C26.29359358 78.44150968 25.96183023 76.77308601 25.67578125 75.09765625 C26.00578125 74.76765625 26.33578125 74.43765625 26.67578125 74.09765625 C26.28197266 72.95699707 25.88816406 71.81633789 25.48242188 70.64111328 C24.02571992 66.41919149 22.57303757 62.195896 21.12158203 57.97216797 C20.49214947 56.14236168 19.86161924 54.31293261 19.22998047 52.48388672 C18.3236242 49.85872609 17.42119067 47.23224571 16.51953125 44.60546875 C16.23517212 43.78458771 15.95081299 42.96370667 15.65783691 42.11795044 C13.67578125 36.32539966 13.67578125 36.32539966 13.67578125 34.09765625 C13.01578125 34.09765625 12.35578125 34.09765625 11.67578125 34.09765625 C11.67578125 53.23765625 11.67578125 72.37765625 11.67578125 92.09765625 C6.06578125 92.09765625 0.45578125 92.09765625 -5.32421875 92.09765625 C-5.34403809 89.41205566 -5.36385742 86.72645508 -5.38427734 83.95947266 C-5.45107842 75.10249722 -5.52871913 66.24564095 -5.61174583 57.38880348 C-5.66176722 52.01704127 -5.70809659 46.64529929 -5.74609375 41.2734375 C-5.78287293 36.09272509 -5.82921246 30.9121796 -5.88228226 25.73160934 C-5.9008655 23.75162041 -5.9159588 21.77159564 -5.92756271 19.7915535 C-5.94435816 17.02573676 -5.97337635 14.26030559 -6.00537109 11.49462891 C-6.00753128 10.66960373 -6.00969147 9.84457855 -6.01191711 8.99455261 C-5.90126752 4.57634297 -5.90126752 4.57634297 -8.32421875 1.09765625 C-5.26502487 0.07792496 -3.2000385 -0.01767977 0 0 Z M70.67578125 27.09765625 C71.67578125 29.09765625 71.67578125 29.09765625 71.67578125 29.09765625 Z M11.67578125 30.09765625 C12.67578125 33.09765625 12.67578125 33.09765625 12.67578125 33.09765625 Z " fill="#BEB8AD" transform="translate(472.32421875,693.90234375)"/>
<path d="M0 0 C2.72970937 -0.14229196 5.45196067 -0.24601262 8.18359375 -0.328125 C8.95199585 -0.37211426 9.72039795 -0.41610352 10.51208496 -0.46142578 C14.87385911 -0.55973247 16.46301847 -0.44277346 19.9543457 2.43603516 C22.25360265 5.50508386 24.13622794 8.64983122 26 12 C27.25644705 13.88467057 28.52726518 15.75984215 29.8125 17.625 C30.82114101 19.15901665 31.82963617 20.69313156 32.83544922 22.22900391 C35.16335527 25.76917802 37.52244369 29.28868204 39.875 32.8125 C40.9011543 34.3514874 41.92719606 35.89054986 42.953125 37.4296875 C43.71206055 38.56809082 43.71206055 38.56809082 44.48632812 39.72949219 C48.99088542 46.48632812 53.49544271 53.24316406 58 60 C57.99777939 59.26306412 57.99555878 58.52612823 57.99327087 57.76686096 C57.97326797 50.83587231 57.95802587 43.90488796 57.94818783 36.97387791 C57.94296005 33.41022578 57.93586431 29.84659743 57.92456055 26.28295898 C57.91165824 22.18993903 57.90677094 18.0969442 57.90234375 14.00390625 C57.89718246 12.71851456 57.89202118 11.43312286 57.88670349 10.10877991 C57.88662796 8.92763107 57.88655243 7.74648224 57.88647461 6.52954102 C57.884254 5.48363297 57.88203339 4.43772491 57.87974548 3.36012268 C58 1 58 1 59 0 C61.86267567 -0.07325168 64.700719 -0.09238205 67.5625 -0.0625 C68.36880859 -0.05798828 69.17511719 -0.05347656 70.00585938 -0.04882812 C72.00393756 -0.03700518 74.00197783 -0.01906914 76 0 C77.050508 4.29141543 77.14167529 8.45670303 77.12939453 12.84790039 C77.13202301 14.0097863 77.13202301 14.0097863 77.13470459 15.19514465 C77.1390925 17.74600489 77.13619619 20.29679535 77.1328125 22.84765625 C77.13348635 24.62454746 77.13445705 26.40143858 77.13571167 28.17832947 C77.13718444 31.897948 77.13504734 35.61754247 77.13037109 39.3371582 C77.12466991 44.10426526 77.12795795 48.87131606 77.13394356 53.63842106 C77.13755697 57.30582605 77.13640705 60.9732177 77.13381577 64.64062309 C77.13314888 66.39849288 77.13396662 68.15636388 77.13629532 69.91423225 C77.13883507 72.37001887 77.13496272 74.82571431 77.12939453 77.28149414 C77.13141876 78.00731689 77.13344299 78.73313965 77.13552856 79.48095703 C77.12160024 82.79731613 77.02787657 85.82891246 76 89 C76.66 89.33 77.32 89.66 78 90 C74.7687534 93.2312466 70.80308713 93.18982112 66.43359375 93.31054688 C63.1823064 93.10626245 60.87497996 92.72804066 58.33105469 90.61132812 C54.8209503 86.42488096 52.27248671 81.59995076 49.63378906 76.83740234 C46.64981463 71.65513235 43.22944912 66.75949296 39.875 61.8125 C38.5111697 59.77206942 37.1491498 57.73042745 35.7890625 55.6875 C35.14356445 54.71941406 34.49806641 53.75132812 33.83300781 52.75390625 C32.18386507 50.27623841 30.53964159 47.79543054 28.8984375 45.3125 C28.44355957 44.62567139 27.98868164 43.93884277 27.52001953 43.23120117 C26.70911421 42.00611372 25.90000919 40.77983143 25.09326172 39.55200195 C22.88664396 36.22207877 20.51079549 33.10447629 18 30 C18.00222061 30.76199203 18.00444122 31.52398407 18.00672913 32.30906677 C18.02673157 39.47551712 18.04197388 46.64195401 18.05181217 53.80842495 C18.05704008 57.49314498 18.06413605 61.17784203 18.07543945 64.86254883 C18.08627162 68.41570831 18.09227753 71.96884563 18.09487724 75.52202034 C18.0967309 76.88045666 18.10035038 78.23889171 18.10573006 79.59731865 C18.11294475 81.49382223 18.11340809 83.39034793 18.11352539 85.28686523 C18.115746 86.36830307 18.11796661 87.44974091 18.12025452 88.56394958 C18 91 18 91 17 92 C14.3226862 92.09981214 11.67695825 92.13879875 9 92.125 C7.87464844 92.13080078 7.87464844 92.13080078 6.7265625 92.13671875 C1.12661053 92.12661053 1.12661053 92.12661053 0 91 C-0.39305348 87.37303554 -0.45440847 83.71480438 -0.58984375 80.0703125 C-0.65461159 78.34362839 -0.65461159 78.34362839 -0.72068787 76.58206177 C-1.18803103 62.0788596 -0.89122089 47.58728381 -0.60510254 33.08319092 C-0.53277343 29.33420123 -0.46896243 25.58506581 -0.40429688 21.8359375 C-0.27756407 14.55713008 -0.14188516 7.27852958 0 0 Z " fill="#C0BAAF" transform="translate(185,694)"/>
<path d="M0 0 C6.17421637 6.84169922 9.78137089 15.10633552 10.5625 24.3125 C9.5625 25.3125 9.5625 25.3125 7.79663086 25.42602539 C7.04776611 25.42078857 6.29890137 25.41555176 5.52734375 25.41015625 C4.71845703 25.40693359 3.90957031 25.40371094 3.07617188 25.40039062 C2.22603516 25.39201172 1.37589844 25.38363281 0.5 25.375 C-0.35400391 25.37048828 -1.20800781 25.36597656 -2.08789062 25.36132812 C-4.20445663 25.34950373 -6.32098685 25.33156769 -8.4375 25.3125 C-8.67533203 24.31669922 -8.67533203 24.31669922 -8.91796875 23.30078125 C-10.3998058 17.69272389 -11.68437383 13.99617278 -16.4375 10.3125 C-17.4275 9.9825 -18.4175 9.6525 -19.4375 9.3125 C-18.9425 8.8175 -18.9425 8.8175 -18.4375 8.3125 C-24.74798502 6.44049009 -31.90529011 6.2907311 -38 8.75 C-39.2065625 9.5234375 -39.2065625 9.5234375 -40.4375 10.3125 C-41.4275 10.6425 -42.4175 10.9725 -43.4375 11.3125 C-44.56219942 13.13378665 -44.56219942 13.13378665 -45.4375 15.3125 C-45.77910156 15.99828125 -46.12070312 16.6840625 -46.47265625 17.390625 C-48.81180629 22.33574827 -50.2143458 26.81126397 -50.4375 32.3125 C-50.47746094 33.21871094 -50.51742187 34.12492188 -50.55859375 35.05859375 C-50.82818336 47.25355885 -49.80968645 57.5863032 -41.1875 66.6875 C-34.7147649 70.51229802 -27.68136526 71.03356019 -20.4375 69.3125 C-16.28848046 68.09133467 -13.36044824 66.82041544 -11.05078125 63.046875 C-10.05561163 60.82607543 -9.18891157 58.62605668 -8.4375 56.3125 C-11.37197357 53.37802643 -14.62009456 53.85091577 -18.5625 53.6875 C-19.31660156 53.64882813 -20.07070313 53.61015625 -20.84765625 53.5703125 C-22.71053184 53.47598969 -24.57398255 53.39315338 -26.4375 53.3125 C-26.7675 53.9725 -27.0975 54.6325 -27.4375 55.3125 C-29.09424586 48.89260977 -28.7256545 42.7532725 -27.4375 36.3125 C-15.8875 36.3125 -4.3375 36.3125 7.5625 36.3125 C7.5625 35.6525 7.5625 34.9925 7.5625 34.3125 C8.2225 34.3125 8.8825 34.3125 9.5625 34.3125 C9.5625 35.3025 9.5625 36.2925 9.5625 37.3125 C10.2225 37.6425 10.8825 37.9725 11.5625 38.3125 C11.39951416 38.88583572 11.23652832 39.45917145 11.06860352 40.04988098 C10.56585992 42.29747891 10.44804812 44.21655262 10.46484375 46.5144043 C10.46814697 47.33172531 10.4714502 48.14904633 10.47485352 48.99113464 C10.48730103 50.30069878 10.48730103 50.30069878 10.5 51.63671875 C10.50378662 52.53872513 10.50757324 53.44073151 10.51147461 54.37007141 C10.52368067 57.24676301 10.54232144 60.12335393 10.5625 63 C10.58897852 66.79556999 10.6090151 70.59109174 10.625 74.38671875 C10.63744751 75.70539192 10.63744751 75.70539192 10.65014648 77.05070496 C10.65868173 79.13815698 10.61593539 81.22571457 10.5625 83.3125 C9.5625 84.3125 9.5625 84.3125 7.05859375 84.41015625 C6.04925781 84.39855469 5.03992188 84.38695312 4 84.375 C2.98808594 84.36597656 1.97617187 84.35695313 0.93359375 84.34765625 C0.15113281 84.33605469 -0.63132812 84.32445312 -1.4375 84.3125 C-1.9325 80.8475 -1.9325 80.8475 -2.4375 77.3125 C-5.150769 77.3125 -5.87882668 78.39115833 -7.9375 80.125 C-16.81086735 86.83955168 -26.59764999 87.17595415 -37.4375 86.3125 C-43.59886473 85.19519602 -48.43951111 83.1481659 -53.4375 79.3125 C-54.2625 78.755625 -55.0875 78.19875 -55.9375 77.625 C-66.89406975 67.49017298 -69.73213564 53.59190961 -70.4375 39.3125 C-70.57237152 25.7803913 -67.03374965 12.93039729 -58.4375 2.3125 C-43.42932767 -12.6677761 -15.98999512 -14.76459362 0 0 Z " fill="#BDB7AC" transform="translate(746.4375,701.6875)"/>
<path d="M0 0 C8.6605 7.89633824 13.3285209 18.26780387 14.22094727 29.87329102 C15.14044035 54.28183024 15.14044035 54.28183024 10 64 C9.50242187 64.95777344 9.00484375 65.91554688 8.4921875 66.90234375 C2.38972099 77.47522177 -5.42984522 82.61094679 -17 86 C-17.62390625 86.19207031 -18.2478125 86.38414062 -18.890625 86.58203125 C-30.40061239 88.86271394 -42.03400801 86.68014671 -52.3125 81.25 C-63.3319676 72.02439922 -69.50919359 62.06570747 -70.8359375 47.49609375 C-71.91631315 31.05895 -69.46556132 16.47062364 -59.25 3.1875 C-44.62895043 -12.81870163 -16.49088224 -13.03311661 0 0 Z M-46 14 C-53.35765408 25.8148996 -54.82048 38.77659002 -51.8125 52.3125 C-49.93901152 58.93974665 -47.47161359 63.95823225 -42.125 68.375 C-34.91645264 72.12344463 -28.25230764 73.11636289 -20.4375 70.8125 C-12.64310298 67.92764677 -9.49902547 63.78762556 -5.98046875 56.5 C-1.75851174 45.73485065 -2.44903363 30.0210257 -6.66015625 19.42578125 C-10.22410249 12.97327216 -15.0965053 9.3011649 -22 7 C-31.42112756 6.28377393 -39.10564545 6.92421507 -46 14 Z " fill="#BCB7AC" transform="translate(354,701)"/>
<path d="M0 0 C0.83265381 0.00523682 1.66530762 0.01047363 2.52319336 0.01586914 C3.42231445 0.0190918 4.32143555 0.02231445 5.24780273 0.02563477 C6.66609375 0.03820312 6.66609375 0.03820312 8.11303711 0.05102539 C9.06243164 0.05553711 10.01182617 0.06004883 10.98999023 0.06469727 C13.34356776 0.07652429 15.69702188 0.09300514 18.05053711 0.11352539 C18.75275888 1.84790558 19.45497432 3.58228834 20.15716553 5.31668091 C20.80130058 6.90765577 21.44546696 8.49861796 22.08966064 10.08956909 C23.93895903 14.65709049 25.78735034 19.22497618 27.63427734 23.79345703 C31.43395392 33.19029753 35.23944762 42.58463446 39.06758118 51.96992493 C40.82544883 56.28105784 42.57936924 60.59379112 44.33285522 64.90670776 C45.1863205 67.00294577 46.04164756 69.09842673 46.89883423 71.19314575 C48.10126579 74.13215355 49.29728743 77.07369384 50.49194336 80.01586914 C50.8536261 80.89524139 51.21530884 81.77461365 51.58795166 82.68063354 C51.91406433 83.48727448 52.240177 84.29391541 52.57617188 85.125 C52.86242935 85.82660751 53.14868683 86.52821503 53.44361877 87.25108337 C54.05053711 89.11352539 54.05053711 89.11352539 54.05053711 92.11352539 C47.78053711 92.11352539 41.51053711 92.11352539 35.05053711 92.11352539 C31.5543205 83.82249742 28.28556456 75.52459676 25.05053711 67.11352539 C7.72553711 66.61852539 7.72553711 66.61852539 -9.94946289 66.11352539 C-10.27946289 68.09352539 -10.60946289 70.07352539 -10.94946289 72.11352539 C-11.43594206 73.6969894 -11.96636853 75.26772992 -12.54321289 76.82055664 C-12.85129883 77.65393555 -13.15938477 78.48731445 -13.47680664 79.34594727 C-13.7977832 80.19737305 -14.11875977 81.04879883 -14.44946289 81.92602539 C-14.77043945 82.79678711 -15.09141602 83.66754883 -15.42211914 84.56469727 C-17.8100316 90.9740941 -17.8100316 90.9740941 -18.94946289 92.11352539 C-20.36516412 92.2000415 -21.78505789 92.22057443 -23.20336914 92.21118164 C-24.05737305 92.20795898 -24.91137695 92.20473633 -25.79125977 92.20141602 C-26.6890918 92.19303711 -27.58692383 92.1846582 -28.51196289 92.17602539 C-29.41366211 92.17151367 -30.31536133 92.16700195 -31.24438477 92.16235352 C-33.47947603 92.15052764 -35.71443726 92.13404759 -37.94946289 92.11352539 C-37.23122506 87.36400167 -35.51033753 83.15960358 -33.73071289 78.73071289 C-33.40055176 77.89902588 -33.07039062 77.06733887 -32.73022461 76.21044922 C-31.64060939 73.46820878 -30.54509174 70.72836808 -29.44946289 67.98852539 C-28.69058576 66.08260278 -27.93212809 64.1765131 -27.17407227 62.27026367 C-25.99018582 59.29353129 -24.80590659 56.31696021 -23.61999512 53.34103394 C-20.75383001 46.14709746 -17.9087894 38.94505978 -15.07446289 31.73852539 C-14.29129395 29.74909136 -13.50809136 27.75967058 -12.72485352 25.77026367 C-11.58915743 22.88544793 -10.45411777 20.00038395 -9.32128906 17.11444092 C-8.27264779 14.44391898 -7.22080007 11.77468151 -6.16821289 9.10571289 C-5.8554541 8.30673584 -5.54269531 7.50775879 -5.22045898 6.68457031 C-2.6389342 0.15367619 -2.6389342 0.15367619 0 0 Z M7.05053711 18.11352539 C5.58834985 22.13296762 4.13148019 26.15431758 2.67553711 30.17602539 C2.26303711 31.30975586 1.85053711 32.44348633 1.42553711 33.61157227 C1.02592773 34.71694336 0.62631836 35.82231445 0.21459961 36.96118164 C-0.15197754 37.97188721 -0.51855469 38.98259277 -0.89624023 40.02392578 C-2.03000921 43.34980578 -2.98414312 46.7349062 -3.94946289 50.11352539 C3.64053711 50.11352539 11.23053711 50.11352539 19.05053711 50.11352539 C18.22467546 45.15835548 17.03583074 40.98357845 15.23803711 36.36352539 C14.97104004 35.66485352 14.70404297 34.96618164 14.42895508 34.24633789 C12.35811109 28.84695151 10.23813921 23.46671642 8.05053711 18.11352539 C7.72053711 18.11352539 7.39053711 18.11352539 7.05053711 18.11352539 Z " fill="#BEB8AD" transform="translate(613.949462890625,693.886474609375)"/>
<path d="M0 0 C19.47 0 38.94 0 59 0 C61.38513918 4.77027835 59.37998427 10.68022027 59 16 C45.47 16 31.94 16 18 16 C18 21.94 18 27.88 18 34 C19.32 34 20.64 34 22 34 C22 34.66 22 35.32 22 36 C22.66 36 23.32 36 24 36 C24 35.34 24 34.68 24 34 C25.485 34.495 25.485 34.495 27 35 C28.485 34.505 28.485 34.505 30 34 C31.89269307 34.23243599 33.78504757 34.47005789 35.671875 34.74609375 C39.05501746 35.11506063 42.40269068 35.02285235 45.80078125 34.9375 C48 35 48 35 51 36 C51.495 35.01 51.495 35.01 52 34 C52.99 34.33 53.98 34.66 55 35 C55.99 34.67 56.98 34.34 58 34 C59.22329074 37.66987221 58.88021006 40.33967822 58.5625 44.1875 C58.46066406 45.45980469 58.35882812 46.73210938 58.25390625 48.04296875 C58.17011719 49.01878906 58.08632813 49.99460937 58 51 C54.32031466 52.22656178 50.94902389 52.1052056 47.12109375 52.0625 C45.96928368 52.05682007 45.96928368 52.05682007 44.79420471 52.05102539 C42.34191284 52.03881013 39.88973853 52.0201771 37.4375 52 C34.20703448 51.97347678 30.97662681 51.95345063 27.74609375 51.9375 C27.00024521 51.92920166 26.25439667 51.92090332 25.48594666 51.91235352 C21.61607351 51.81723768 21.61607351 51.81723768 18 53 C18.33 53.66 18.66 54.32 19 55 C18.34 55 17.68 55 17 55 C17 61.27 17 67.54 17 74 C20.22242789 75.61121394 23.7649829 75.38996022 27.3125 75.5625 C28.14177002 75.6049585 28.97104004 75.64741699 29.82543945 75.69116211 C39.54832757 76.141472 49.26951477 76.08713867 59 76 C59.19787356 77.54036957 59.38275863 79.08240952 59.5625 80.625 C59.71912109 81.91277344 59.71912109 81.91277344 59.87890625 83.2265625 C60 86 60 86 59 92 C39.53 92 20.06 92 0 92 C-0.82002993 87.07982042 -1.14254476 82.5817798 -1.12939453 77.63964844 C-1.13202301 76.41420319 -1.13202301 76.41420319 -1.13470459 75.16400146 C-1.1390857 72.47910402 -1.13619942 69.79427305 -1.1328125 67.109375 C-1.13348635 65.23944079 -1.13445706 63.36950666 -1.13571167 61.49957275 C-1.13718335 57.58922488 -1.13505014 53.6788999 -1.13037109 49.76855469 C-1.12465831 44.74905462 -1.12796594 39.72960785 -1.13394356 34.71010971 C-1.13755 30.85320633 -1.13641047 26.99631568 -1.13381577 23.13941193 C-1.13314755 21.28778324 -1.13397127 19.43615341 -1.13629532 17.58452606 C-1.1388249 15.00391047 -1.13497763 12.42338247 -1.12939453 9.84277344 C-1.13141876 9.07392822 -1.13344299 8.30508301 -1.13552856 7.51293945 C-1.11426763 2.22853527 -1.11426763 2.22853527 0 0 Z " fill="#C1BCB0" transform="translate(781,694)"/>
<path d="M0 0 C0.79792969 0.00386719 1.59585937 0.00773438 2.41796875 0.01171875 C3.21589844 0.00785156 4.01382812 0.00398437 4.8359375 0 C10.79136108 0.01011108 10.79136108 0.01011108 11.91796875 1.13671875 C12.0184875 3.93124146 12.05412769 6.7010823 12.04736328 9.49609375 C12.0491156 10.37245483 12.05086792 11.24881592 12.05267334 12.1517334 C12.05709307 15.06341502 12.05415344 17.97503645 12.05078125 20.88671875 C12.05145425 22.90071627 12.05242425 24.9147137 12.05368042 26.92871094 C12.05515756 31.1556068 12.05300233 35.38248158 12.04833984 39.609375 C12.04264255 45.04052407 12.04592147 50.47162374 12.05191231 55.902771 C12.05551749 60.06331762 12.05437953 64.22385244 12.05178452 68.38439941 C12.05111513 70.3875733 12.05194408 72.39074824 12.05426407 74.3939209 C12.0567899 77.18842427 12.05295099 79.98284646 12.04736328 82.77734375 C12.04938751 83.6137439 12.05141174 84.45014404 12.05349731 85.31188965 C12.03223117 91.02245633 12.03223117 91.02245633 10.91796875 92.13671875 C8.05529308 92.20997043 5.21724975 92.2291008 2.35546875 92.19921875 C1.54916016 92.19470703 0.74285156 92.19019531 -0.08789062 92.18554688 C-2.08596881 92.17372393 -4.08400908 92.15578789 -6.08203125 92.13671875 C-7.7055276 88.88972604 -7.22019498 85.32291182 -7.21142578 81.75561523 C-7.2131781 80.88886169 -7.21493042 80.02210815 -7.21673584 79.12908936 C-7.22114822 76.25531022 -7.21821876 73.38159229 -7.21484375 70.5078125 C-7.2155169 68.51766447 -7.21648702 66.52751652 -7.21774292 64.53736877 C-7.21921901 60.36352761 -7.21706794 56.18970782 -7.21240234 52.01586914 C-7.20670142 46.65312978 -7.20998693 41.29044043 -7.21597481 35.9277029 C-7.21957966 31.81777059 -7.21844225 27.70785022 -7.21584702 23.59791756 C-7.21517773 21.61986345 -7.21600624 19.64180828 -7.21832657 17.66375542 C-7.22085224 14.90528338 -7.21701388 12.14689361 -7.21142578 9.38842773 C-7.21345001 8.56294937 -7.21547424 7.73747101 -7.21755981 6.88697815 C-7.19169012 0.03067681 -6.85931947 0.0116457 0 0 Z " fill="#C2BCB2" transform="translate(431.08203125,693.86328125)"/>
<path d="M0 0 C19.47 0 38.94 0 59 0 C61.38513918 4.77027835 59.37998427 10.68022027 59 16 C38.705 15.505 38.705 15.505 18 15 C18 14.67 18 14.34 18 14 C31.2 14 44.4 14 58 14 C58 10.04 58 6.08 58 2 C39.19 2 20.38 2 1 2 C1 31.04 1 60.08 1 90 C19.81 90 38.62 90 58 90 C58 86.04 58 82.08 58 78 C44.14 78 30.28 78 16 78 C16 70.41 16 62.82 16 55 C16.33 55 16.66 55 17 55 C17 61.27 17 67.54 17 74 C20.22242789 75.61121394 23.7649829 75.38996022 27.3125 75.5625 C28.14177002 75.6049585 28.97104004 75.64741699 29.82543945 75.69116211 C39.54832757 76.141472 49.26951477 76.08713867 59 76 C59.19787356 77.54036957 59.38275863 79.08240952 59.5625 80.625 C59.71912109 81.91277344 59.71912109 81.91277344 59.87890625 83.2265625 C60 86 60 86 59 92 C39.53 92 20.06 92 0 92 C-0.82002993 87.07982042 -1.14254476 82.5817798 -1.12939453 77.63964844 C-1.13202301 76.41420319 -1.13202301 76.41420319 -1.13470459 75.16400146 C-1.1390857 72.47910402 -1.13619942 69.79427305 -1.1328125 67.109375 C-1.13348635 65.23944079 -1.13445706 63.36950666 -1.13571167 61.49957275 C-1.13718335 57.58922488 -1.13505014 53.6788999 -1.13037109 49.76855469 C-1.12465831 44.74905462 -1.12796594 39.72960785 -1.13394356 34.71010971 C-1.13755 30.85320633 -1.13641047 26.99631568 -1.13381577 23.13941193 C-1.13314755 21.28778324 -1.13397127 19.43615341 -1.13629532 17.58452606 C-1.1388249 15.00391047 -1.13497763 12.42338247 -1.12939453 9.84277344 C-1.13141876 9.07392822 -1.13344299 8.30508301 -1.13552856 7.51293945 C-1.11426763 2.22853527 -1.11426763 2.22853527 0 0 Z " fill="#A5A096" transform="translate(781,694)"/>
<path d="M0 0 C7.59 0 15.18 0 23 0 C23.91431218 4.57156089 24.14147987 8.71940834 24.12939453 13.33862305 C24.13114685 14.16519409 24.13289917 14.99176514 24.13470459 15.84338379 C24.13909389 18.56618367 24.13619622 21.28891825 24.1328125 24.01171875 C24.13348619 25.90550245 24.13445675 27.79928606 24.13571167 29.69306946 C24.13718452 33.65647202 24.13504661 37.61985202 24.13037109 41.58325195 C24.12466236 46.67116171 24.12796265 51.75901885 24.13394356 56.84692669 C24.13755034 60.75444437 24.13641024 64.66194949 24.13381577 68.56946754 C24.13314743 70.44621601 24.13397168 72.32296561 24.13629532 74.19971275 C24.13882501 76.81635963 24.13497728 79.43292013 24.12939453 82.04956055 C24.13141876 82.82932755 24.13344299 83.60909454 24.13552856 84.41249084 C24.1142667 89.77146659 24.1142667 89.77146659 23 92 C17.39 92 11.78 92 6 92 C5.67 72.53 5.34 53.06 5 33 C1.37 42.9 -2.26 52.8 -6 63 C-7.36313665 58.91059005 -5.92840417 56.21719631 -4.5078125 52.33984375 C-4.24241669 51.59416641 -3.97702087 50.84848907 -3.70358276 50.08021545 C-2.85257225 47.69615999 -1.98881159 45.31694321 -1.125 42.9375 C-0.54997236 41.33036731 0.02425623 39.72294849 0.59765625 38.11523438 C4.76988366 26.46023267 4.76988366 26.46023267 6 24 C6.66 24 7.32 24 8 24 C8 45.78 8 67.56 8 90 C12.62 90 17.24 90 22 90 C22 60.96 22 31.92 22 2 C15.07 2 8.14 2 1 2 C0.01 5.3 -0.98 8.6 -2 12 C-2.54614992 13.65827554 -3.10389092 15.31291337 -3.68579102 16.95898438 C-3.97942032 17.79264526 -4.27304962 18.62630615 -4.57557678 19.48522949 C-4.88192551 20.34604126 -5.18827423 21.20685303 -5.50390625 22.09375 C-5.82785873 23.00709106 -6.15181122 23.92043213 -6.48558044 24.8614502 C-7.16409606 26.77106575 -7.84396564 28.68020073 -8.52514648 30.58886719 C-9.56895071 33.51810269 -10.60390886 36.45037284 -11.63867188 39.3828125 C-12.30154567 41.24498315 -12.96493831 43.1069692 -13.62890625 44.96875 C-14.09146568 46.28425842 -14.09146568 46.28425842 -14.56336975 47.62634277 C-14.85384689 48.43478638 -15.14432404 49.24322998 -15.44360352 50.07617188 C-15.69658707 50.78769409 -15.94957062 51.49921631 -16.21022034 52.2322998 C-17 54 -17 54 -19 56 C-18.31813196 50.02229017 -16.23892142 44.61164364 -14.21875 38.984375 C-13.84520386 37.93219788 -13.47165771 36.88002075 -13.08679199 35.79595947 C-12.29895797 33.57961575 -11.50874563 31.36411618 -10.71630859 29.14941406 C-9.49992545 25.74979163 -8.29033641 22.34781343 -7.08203125 18.9453125 C-6.31549556 16.79152733 -5.54858161 14.63787673 -4.78125 12.484375 C-4.41769409 11.46357849 -4.05413818 10.44278198 -3.67956543 9.39105225 C-3.34251587 8.44957336 -3.00546631 7.50809448 -2.65820312 6.53808594 C-2.36143677 5.70790955 -2.06467041 4.87773315 -1.75891113 4.0223999 C-1 2 -1 2 0 0 Z M6 27 C7 29 7 29 7 29 Z " fill="#A39D94" transform="translate(537,694)"/>
<path d="M0 0 C2.73962713 -0.12180298 5.47381631 -0.21082752 8.21484375 -0.28125 C9.37373108 -0.33780762 9.37373108 -0.33780762 10.55603027 -0.39550781 C14.63759045 -0.47418849 16.40617329 -0.45776791 19.73632812 2.109375 C21.43512078 4.33324902 22.80198551 6.47364309 24 9 C23.67 9.66 23.34 10.32 23 11 C22.74089844 10.43410156 22.48179687 9.86820313 22.21484375 9.28515625 C20.76502935 6.55176535 20.76502935 6.55176535 17 3 C12.05 2.67 7.1 2.34 2 2 C2 31.04 2 60.08 2 90 C6.62 90 11.24 90 16 90 C16 70.86 16 51.72 16 32 C16.33 32 16.66 32 17 32 C17.92315791 45.74845886 18.11086106 59.47577941 18.125 73.25 C18.12749756 74.11739807 18.12999512 74.98479614 18.13256836 75.878479 C18.13843631 78.36173542 18.13697877 80.84486733 18.1328125 83.328125 C18.13479645 84.08763458 18.1367804 84.84714417 18.13882446 85.62966919 C18.11524675 90.88475325 18.11524675 90.88475325 17 92 C14.3226862 92.09981214 11.67695825 92.13879875 9 92.125 C7.87464844 92.13080078 7.87464844 92.13080078 6.7265625 92.13671875 C1.12661053 92.12661053 1.12661053 92.12661053 0 91 C-0.39305348 87.37303554 -0.45440847 83.71480438 -0.58984375 80.0703125 C-0.65461159 78.34362839 -0.65461159 78.34362839 -0.72068787 76.58206177 C-1.18803103 62.0788596 -0.89122089 47.58728381 -0.60510254 33.08319092 C-0.53277343 29.33420123 -0.46896243 25.58506581 -0.40429688 21.8359375 C-0.27756407 14.55713008 -0.14188516 7.27852958 0 0 Z " fill="#A7A097" transform="translate(185,694)"/>
<path d="M0 0 C1.58206057 0.00667536 3.16410534 0.0186375 4.74609375 0.03515625 C5.55240234 0.03966797 6.35871094 0.04417969 7.18945312 0.04882812 C9.18753131 0.06065107 11.18557158 0.07858711 13.18359375 0.09765625 C14.23410175 4.38907168 14.32526904 8.55435928 14.31298828 12.94555664 C14.3147406 13.72014725 14.31649292 14.49473785 14.31829834 15.2928009 C14.32268625 17.84366114 14.31978994 20.3944516 14.31640625 22.9453125 C14.3170801 24.72220371 14.3180508 26.49909483 14.31930542 28.27598572 C14.32077819 31.99560425 14.31864109 35.71519872 14.31396484 39.43481445 C14.30826366 44.20192151 14.3115517 48.96897231 14.31753731 53.73607731 C14.32115072 57.4034823 14.3200008 61.07087395 14.31740952 64.73827934 C14.31674263 66.49614913 14.31756037 68.25402013 14.31988907 70.0118885 C14.32242882 72.46767512 14.31855647 74.92337056 14.31298828 77.37915039 C14.31501251 78.10497314 14.31703674 78.8307959 14.31912231 79.57861328 C14.30519399 82.89497238 14.21147032 85.92656871 13.18359375 89.09765625 C13.84359375 89.42765625 14.50359375 89.75765625 15.18359375 90.09765625 C12.2681324 93.0131176 9.21365792 92.54236331 5.30859375 92.59765625 C4.58800781 92.63890625 3.86742187 92.68015625 3.125 92.72265625 C1.00390625 92.75390625 1.00390625 92.75390625 -2.81640625 92.09765625 C-5.32421875 89.06640625 -5.32421875 89.06640625 -6.81640625 86.09765625 C-6.32140625 85.10765625 -6.32140625 85.10765625 -5.81640625 84.09765625 C-2.81640625 87.84765625 -2.81640625 87.84765625 -2.81640625 90.09765625 C2.13359375 90.09765625 7.08359375 90.09765625 12.18359375 90.09765625 C12.18359375 61.05765625 12.18359375 32.01765625 12.18359375 2.09765625 C7.23359375 2.09765625 2.28359375 2.09765625 -2.81640625 2.09765625 C-2.81640625 20.57765625 -2.81640625 39.05765625 -2.81640625 58.09765625 C-3.14640625 58.09765625 -3.47640625 58.09765625 -3.81640625 58.09765625 C-4.60303553 44.30354989 -4.92541258 30.53646537 -4.94140625 16.72265625 C-4.94390381 15.95447571 -4.94640137 15.18629517 -4.94897461 14.39483643 C-4.95483012 12.20458385 -4.95339497 10.01447265 -4.94921875 7.82421875 C-4.94809082 6.55143066 -4.94696289 5.27864258 -4.94580078 3.96728516 C-4.74945761 -0.38708783 -4.53857668 0.11613553 0 0 Z " fill="#ACA79E" transform="translate(247.81640625,693.90234375)"/>
<path d="M0 0 C0.79792969 0.00386719 1.59585937 0.00773438 2.41796875 0.01171875 C3.21589844 0.00785156 4.01382812 0.00398437 4.8359375 0 C10.79136108 0.01011108 10.79136108 0.01011108 11.91796875 1.13671875 C12.0184875 3.93124146 12.05412769 6.7010823 12.04736328 9.49609375 C12.0491156 10.37245483 12.05086792 11.24881592 12.05267334 12.1517334 C12.05709307 15.06341502 12.05415344 17.97503645 12.05078125 20.88671875 C12.05145425 22.90071627 12.05242425 24.9147137 12.05368042 26.92871094 C12.05515756 31.1556068 12.05300233 35.38248158 12.04833984 39.609375 C12.04264255 45.04052407 12.04592147 50.47162374 12.05191231 55.902771 C12.05551749 60.06331762 12.05437953 64.22385244 12.05178452 68.38439941 C12.05111513 70.3875733 12.05194408 72.39074824 12.05426407 74.3939209 C12.0567899 77.18842427 12.05295099 79.98284646 12.04736328 82.77734375 C12.04938751 83.6137439 12.05141174 84.45014404 12.05349731 85.31188965 C12.03223117 91.02245633 12.03223117 91.02245633 10.91796875 92.13671875 C8.05529308 92.20997043 5.21724975 92.2291008 2.35546875 92.19921875 C1.54916016 92.19470703 0.74285156 92.19019531 -0.08789062 92.18554688 C-2.08596881 92.17372393 -4.08400908 92.15578789 -6.08203125 92.13671875 C-7.7055276 88.88972604 -7.22019498 85.32291182 -7.21142578 81.75561523 C-7.2131781 80.88886169 -7.21493042 80.02210815 -7.21673584 79.12908936 C-7.22114822 76.25531022 -7.21821876 73.38159229 -7.21484375 70.5078125 C-7.2155169 68.51766447 -7.21648702 66.52751652 -7.21774292 64.53736877 C-7.21921901 60.36352761 -7.21706794 56.18970782 -7.21240234 52.01586914 C-7.20670142 46.65312978 -7.20998693 41.29044043 -7.21597481 35.9277029 C-7.21957966 31.81777059 -7.21844225 27.70785022 -7.21584702 23.59791756 C-7.21517773 21.61986345 -7.21600624 19.64180828 -7.21832657 17.66375542 C-7.22085224 14.90528338 -7.21701388 12.14689361 -7.21142578 9.38842773 C-7.21345001 8.56294937 -7.21547424 7.73747101 -7.21755981 6.88697815 C-7.19169012 0.03067681 -6.85931947 0.0116457 0 0 Z M-5.08203125 2.13671875 C-5.08203125 31.17671875 -5.08203125 60.21671875 -5.08203125 90.13671875 C-0.13203125 90.13671875 4.81796875 90.13671875 9.91796875 90.13671875 C9.91796875 61.09671875 9.91796875 32.05671875 9.91796875 2.13671875 C4.96796875 2.13671875 0.01796875 2.13671875 -5.08203125 2.13671875 Z " fill="#959087" transform="translate(431.08203125,693.86328125)"/>
<path d="M0 0 C0.66 0 1.32 0 2 0 C2 0.99 2 1.98 2 3 C2.66 3.33 3.32 3.66 4 4 C3.83701416 4.57333572 3.67402832 5.14667145 3.50610352 5.73738098 C3.00335992 7.98497891 2.88554812 9.90405262 2.90234375 12.2019043 C2.90729858 13.42788582 2.90729858 13.42788582 2.91235352 14.67863464 C2.92065186 15.5516774 2.9289502 16.42472015 2.9375 17.32421875 C2.94128662 18.22622513 2.94507324 19.12823151 2.94897461 20.05757141 C2.96118067 22.93426301 2.97982144 25.81085393 3 28.6875 C3.02647852 32.48306999 3.0465151 36.27859174 3.0625 40.07421875 C3.07079834 40.9533342 3.07909668 41.83244965 3.08764648 42.73820496 C3.09618173 44.82565698 3.05343539 46.91321457 3 49 C2 50 2 50 -0.50390625 50.09765625 C-1.51324219 50.08605469 -2.52257812 50.07445312 -3.5625 50.0625 C-4.57441406 50.05347656 -5.58632813 50.04445313 -6.62890625 50.03515625 C-7.80259766 50.01775391 -7.80259766 50.01775391 -9 50 C-9 47.36 -9 44.72 -9 42 C-8.67 42 -8.34 42 -8 42 C-8 43.98 -8 45.96 -8 48 C-5.03 48 -2.06 48 1 48 C1 33.48 1 18.96 1 4 C-10.55 4 -22.1 4 -34 4 C-34 8.29 -34 12.58 -34 17 C-27.73 17 -21.46 17 -15 17 C-15 17.33 -15 17.66 -15 18 C-21.93 18 -28.86 18 -36 18 C-36.06806353 12.35072665 -36.11031666 7.5515833 -35 2 C-23.45 2 -11.9 2 0 2 C0 1.34 0 0.68 0 0 Z " fill="#A49F94" transform="translate(754,736)"/>
<path d="M0 0 C19.47 0 38.94 0 59 0 C61.38513918 4.77027835 59.37998427 10.68022027 59 16 C38.705 15.505 38.705 15.505 18 15 C18 14.67 18 14.34 18 14 C31.2 14 44.4 14 58 14 C58 10.04 58 6.08 58 2 C39.19 2 20.38 2 1 2 C1 11.24 1 20.48 1 30 C0.67 30 0.34 30 0 30 C-0.16755938 26.04924621 -0.3281242 22.09827679 -0.48217773 18.14697266 C-0.56187238 16.14079929 -0.64712518 14.13484924 -0.73242188 12.12890625 C-0.78076172 10.87207031 -0.82910156 9.61523438 -0.87890625 8.3203125 C-0.9260376 7.15773926 -0.97316895 5.99516602 -1.02172852 4.79736328 C-1 2 -1 2 0 0 Z " fill="#9D978E" transform="translate(781,694)"/>
<path d="M0 0 C0.79792969 0.00386719 1.59585937 0.00773438 2.41796875 0.01171875 C3.21589844 0.00785156 4.01382812 0.00398437 4.8359375 0 C10.79136108 0.01011108 10.79136108 0.01011108 11.91796875 1.13671875 C12.05912036 3.80730726 11.96043982 6.46104113 11.91796875 9.13671875 C11.25796875 9.13671875 10.59796875 9.13671875 9.91796875 9.13671875 C9.91796875 6.82671875 9.91796875 4.51671875 9.91796875 2.13671875 C4.96796875 2.13671875 0.01796875 2.13671875 -5.08203125 2.13671875 C-5.08203125 22.92671875 -5.08203125 43.71671875 -5.08203125 65.13671875 C-5.41203125 65.13671875 -5.74203125 65.13671875 -6.08203125 65.13671875 C-7.31027233 58.44176809 -7.22622723 51.81025809 -7.21484375 45.01953125 C-7.21580048 43.766633 -7.2167572 42.51373474 -7.21774292 41.22286987 C-7.21859467 37.91233557 -7.21458815 34.6018488 -7.20898438 31.2913208 C-7.20637342 28.57813348 -7.21119739 25.86497911 -7.21597481 23.15179634 C-7.22044272 19.92020508 -7.21732279 16.68862353 -7.21484375 13.45703125 C-7.21686798 12.2373465 -7.21889221 11.01766174 -7.22097778 9.76101685 C-7.21782562 8.64250336 -7.21467346 7.52398987 -7.21142578 6.37158203 C-7.21023239 4.88768478 -7.21023239 4.88768478 -7.20901489 3.37380981 C-6.94850494 -1.21563554 -3.89830936 0.00661852 0 0 Z " fill="#9E988F" transform="translate(431.08203125,693.86328125)"/>
<path d="M0 0 C11.88 0 23.76 0 36 0 C38.6119824 5.22396481 40.82917458 9.88794672 42.75 15.3125 C43.17796875 16.50488281 43.6059375 17.69726562 44.046875 18.92578125 C45 22 45 22 45 25 C50.61 25 56.22 25 62 25 C60.7315625 22.091875 60.7315625 22.091875 59.4375 19.125 C58.55899003 17.1108552 57.73178866 15.07196631 57 13 C57.33 12.34 57.66 11.68 58 11 C64 22.73786408 64 22.73786408 64 27 C57.73 27 51.46 27 45 27 C41.50378339 18.70897203 38.23502745 10.41107137 35 2 C23.45 1.67 11.9 1.34 0 1 C0 0.67 0 0.34 0 0 Z " fill="#9F998F" transform="translate(604,759)"/>
<path d="M0 0 C7.59 0 15.18 0 23 0 C23.495 1.98 23.495 1.98 24 4 C23.34 4.33 22.68 4.66 22 5 C22 4.01 22 3.02 22 2 C15.07 2 8.14 2 1 2 C0.01 5.3 -0.98 8.6 -2 12 C-2.54614992 13.65827554 -3.10389092 15.31291337 -3.68579102 16.95898438 C-3.97942032 17.79264526 -4.27304962 18.62630615 -4.57557678 19.48522949 C-4.88192551 20.34604126 -5.18827423 21.20685303 -5.50390625 22.09375 C-5.82785873 23.00709106 -6.15181122 23.92043213 -6.48558044 24.8614502 C-7.16409606 26.77106575 -7.84396564 28.68020073 -8.52514648 30.58886719 C-9.56895071 33.51810269 -10.60390886 36.45037284 -11.63867188 39.3828125 C-12.30154567 41.24498315 -12.96493831 43.1069692 -13.62890625 44.96875 C-14.09146568 46.28425842 -14.09146568 46.28425842 -14.56336975 47.62634277 C-14.85384689 48.43478638 -15.14432404 49.24322998 -15.44360352 50.07617188 C-15.69658707 50.78769409 -15.94957062 51.49921631 -16.21022034 52.2322998 C-17 54 -17 54 -19 56 C-18.31813196 50.02229017 -16.23892142 44.61164364 -14.21875 38.984375 C-13.84520386 37.93219788 -13.47165771 36.88002075 -13.08679199 35.79595947 C-12.29895797 33.57961575 -11.50874563 31.36411618 -10.71630859 29.14941406 C-9.49992545 25.74979163 -8.29033641 22.34781343 -7.08203125 18.9453125 C-6.31549556 16.79152733 -5.54858161 14.63787673 -4.78125 12.484375 C-4.41769409 11.46357849 -4.05413818 10.44278198 -3.67956543 9.39105225 C-3.34251587 8.44957336 -3.00546631 7.50809448 -2.65820312 6.53808594 C-2.36143677 5.70790955 -2.06467041 4.87773315 -1.75891113 4.0223999 C-1 2 -1 2 0 0 Z " fill="#A69F95" transform="translate(537,694)"/>
<path d="M0 0 C0.33 0 0.66 0 1 0 C1.92315791 13.74845886 2.11086106 27.47577941 2.125 41.25 C2.12749756 42.11739807 2.12999512 42.98479614 2.13256836 43.878479 C2.13843631 46.36173542 2.13697877 48.84486733 2.1328125 51.328125 C2.13479645 52.08763458 2.1367804 52.84714417 2.13882446 53.62966919 C2.11524675 58.88475325 2.11524675 58.88475325 1 60 C-1.69654854 60.07319621 -4.36691458 60.09242537 -7.0625 60.0625 C-8.20041992 60.05573242 -8.20041992 60.05573242 -9.36132812 60.04882812 C-11.24091871 60.0370068 -13.12046899 60.01907078 -15 60 C-15 59.01 -15 58.02 -15 57 C-10.05 57.33 -5.1 57.66 0 58 C0 38.86 0 19.72 0 0 Z " fill="#A09A91" transform="translate(201,726)"/>
<path d="M0 0 C0.598125 0.185625 1.19625 0.37125 1.8125 0.5625 C4.16408762 1.22093687 4.16408762 1.22093687 7 0 C8.22329074 3.66987221 7.88021006 6.33967822 7.5625 10.1875 C7.46066406 11.45980469 7.35882812 12.73210938 7.25390625 14.04296875 C7.17011719 15.01878906 7.08632813 15.99460937 7 17 C3.51707546 18.16097485 0.77519397 18.12950079 -2.8984375 18.1328125 C-3.57041168 18.13376923 -4.24238586 18.13472595 -4.9347229 18.13571167 C-6.35524591 18.13639149 -7.77577204 18.13455098 -9.19628906 18.13037109 C-11.36009795 18.12503674 -13.5236977 18.13031405 -15.6875 18.13671875 C-17.07031295 18.13605761 -18.45312578 18.13477569 -19.8359375 18.1328125 C-21.08938965 18.13168457 -22.3428418 18.13055664 -23.63427734 18.12939453 C-26.55950392 18.01693478 -29.1612729 17.68013281 -32 17 C-32 16.67 -32 16.34 -32 16 C-19.79 16 -7.58 16 5 16 C5 11.71 5 7.42 5 3 C2.36 3 -0.28 3 -3 3 C-2.01 2.67 -1.02 2.34 0 2 C0 1.34 0 0.68 0 0 Z " fill="#A49E94" transform="translate(832,728)"/>
<path d="M0 0 C0.33 0 0.66 0 1 0 C1 16.83 1 33.66 1 51 C1.66 51.33 2.32 51.66 3 52 C0.08453865 54.91546135 -2.96993583 54.44470706 -6.875 54.5 C-7.59558594 54.54125 -8.31617188 54.5825 -9.05859375 54.625 C-11.1796875 54.65625 -11.1796875 54.65625 -15 54 C-17.5078125 50.96875 -17.5078125 50.96875 -19 48 C-18.67 47.34 -18.34 46.68 -18 46 C-15 49.75 -15 49.75 -15 52 C-10.05 52 -5.1 52 0 52 C0 34.84 0 17.68 0 0 Z " fill="#8C8880" transform="translate(260,732)"/>
<path d="M0 0 C0.33 0 0.66 0 1 0 C1 6.27 1 12.54 1 19 C3.22253008 20.11126504 4.60306129 20.19328722 7.0703125 20.31640625 C7.885 20.35830078 8.6996875 20.40019531 9.5390625 20.44335938 C10.39242187 20.48267578 11.24578125 20.52199219 12.125 20.5625 C13.37023437 20.62727539 13.37023437 20.62727539 14.640625 20.69335938 C19.76689314 20.94645882 24.8677416 21.04148477 30 21 C29.67 21.66 29.34 22.32 29 23 C19.43 23 9.86 23 0 23 C0 15.41 0 7.82 0 0 Z " fill="#A6A095" transform="translate(797,749)"/>
<path d="M0 0 C1.02802734 0.00322266 2.05605469 0.00644531 3.11523438 0.00976562 C4.72301758 0.02233398 4.72301758 0.02233398 6.36328125 0.03515625 C7.44673828 0.03966797 8.53019531 0.04417969 9.64648438 0.04882812 C12.3229721 0.06061882 14.99934902 0.07707562 17.67578125 0.09765625 C18.54350154 2.17538096 19.39451744 4.26008802 20.23828125 6.34765625 C20.71394531 7.5078125 21.18960937 8.66796875 21.6796875 9.86328125 C22.63348649 12.96032269 22.88561481 14.17087326 21.67578125 17.09765625 C20.83838344 14.97425465 20.00597842 12.84888345 19.17578125 10.72265625 C18.71171875 9.53929687 18.24765625 8.3559375 17.76953125 7.13671875 C16.67578125 4.09765625 16.67578125 4.09765625 16.67578125 2.09765625 C9.74578125 2.09765625 2.81578125 2.09765625 -4.32421875 2.09765625 C-4.32421875 3.74765625 -4.32421875 5.39765625 -4.32421875 7.09765625 C-5.82981414 5.13383618 -7.21553558 3.31502259 -8.32421875 1.09765625 C-5.26502487 0.07792496 -3.2000385 -0.01767977 0 0 Z " fill="#AAA49A" transform="translate(472.32421875,693.90234375)"/>
<path d="M0 0 C0.33 0 0.66 0 1 0 C1.33 6.27 1.66 12.54 2 19 C3.32 19 4.64 19 6 19 C6 19.66 6 20.32 6 21 C6.66 21 7.32 21 8 21 C8 20.34 8 19.68 8 19 C8.99 19.33 9.98 19.66 11 20 C11.99 19.67 12.98 19.34 14 19 C15.93321428 19.22936441 17.86626534 19.46336957 19.79296875 19.7421875 C23.20813935 20.14112778 26.56465365 20.06134547 30 20 C30.33 20.66 30.66 21.32 31 22 C20.77 22 10.54 22 0 22 C0 14.74 0 7.48 0 0 Z " fill="#A69F96" transform="translate(797,709)"/>
<path d="M0 0 C1.31983695 3.95951084 0.03971894 6.40007512 -1.375 10.125 C-1.60960937 10.77082031 -1.84421875 11.41664063 -2.0859375 12.08203125 C-3.84237438 16.84237438 -3.84237438 16.84237438 -5 18 C-6.41570123 18.08651611 -7.835595 18.10704904 -9.25390625 18.09765625 C-10.10791016 18.09443359 -10.96191406 18.09121094 -11.84179688 18.08789062 C-12.73962891 18.07951172 -13.63746094 18.07113281 -14.5625 18.0625 C-15.46419922 18.05798828 -16.36589844 18.05347656 -17.29492188 18.04882812 C-19.53001314 18.03700225 -21.76497437 18.0205222 -24 18 C-23.21775257 13.6027062 -21.82845741 10.05440555 -20 6 C-19 9 -19 9 -22 16 C-16.39 16 -10.78 16 -5 16 C-4.731875 14.659375 -4.46375 13.31875 -4.1875 11.9375 C-3.2472894 7.66258564 -1.85261989 3.95786976 0 0 Z " fill="#A29C93" transform="translate(600,768)"/>
<path d="M0 0 C2.00451121 0.30503431 4.00448218 0.64080679 6 1 C6.99 1 7.98 1 9 1 C9.33 0.67 9.66 0.34 10 0 C12.33297433 -0.04092937 14.66705225 -0.04241723 17 0 C17 0.66 17 1.32 17 2 C17.928125 1.79375 18.85625 1.5875 19.8125 1.375 C23 1 23 1 26 3 C12.14 3 -1.72 3 -16 3 C-11.99520151 0.99760075 -10.59591741 0.79452879 -6.3125 0.9375 C-4.5423653 0.99142463 -2.77083735 1.02048903 -1 1 C-0.67 0.67 -0.34 0.34 0 0 Z " fill="#AAA59B" transform="translate(534,200)"/>
<path d="M0 0 C7.59 0 15.18 0 23 0 C23.33 1.32 23.66 2.64 24 4 C23.01 4.495 23.01 4.495 22 5 C22 4.01 22 3.02 22 2 C15.07 2 8.14 2 1 2 C0.34 3.65 -0.32 5.3 -1 7 C-1.33 6.34 -1.66 5.68 -2 5 C-1.34 3.35 -0.68 1.7 0 0 Z " fill="#ABA59B" transform="translate(537,694)"/>
<path d="M0 0 C6.6 0 13.2 0 20 0 C19.67 0.99 19.34 1.98 19 3 C13.06 3 7.12 3 1 3 C-0.98 7.455 -0.98 7.455 -3 12 C-4 9 -4 9 0 0 Z " fill="#AAA49A" transform="translate(612,694)"/>
<path d="M0 0 C11.13632176 0.55681609 21.33179842 4.97896262 30 12 C30.33 12.66 30.66 13.32 31 14 C27.45659102 12.68692823 24.42570799 11.10180268 21.25 9.0625 C14.80792519 5.14165387 8.67934668 2.40928102 1 3 C0.67 2.01 0.34 1.02 0 0 Z " fill="#A8A299" transform="translate(722,246)"/>
<path d="M0 0 C2.77234321 0.13951404 5.53716687 0.14043281 8.3125 0.125 C9.38467773 0.13080078 9.38467773 0.13080078 10.47851562 0.13671875 C14.36711546 0.19815533 14.36711546 0.19815533 18 -1 C18.495 0.485 18.495 0.485 19 2 C5.8 2 -7.4 2 -21 2 C-21 1.67 -21 1.34 -21 1 C-20.15695312 0.93941406 -19.31390625 0.87882813 -18.4453125 0.81640625 C-17.34960938 0.73261719 -16.25390625 0.64882812 -15.125 0.5625 C-14.03445313 0.48128906 -12.94390625 0.40007812 -11.8203125 0.31640625 C-3.90404955 -0.57170635 -3.90404955 -0.57170635 0 0 Z " fill="#A59F96" transform="translate(461,201)"/>
<path d="M0 0 C2.81256281 -0.02684312 5.62487241 -0.04676188 8.4375 -0.0625 C9.23994141 -0.07087891 10.04238281 -0.07925781 10.86914062 -0.08789062 C12.91295221 -0.0965143 14.95683902 -0.0522815 17 0 C18 1 18 1 18.09765625 2.84765625 C18.06510417 4.8984375 18.03255208 6.94921875 18 9 C17.34 9 16.68 9 16 9 C16 6.69 16 4.38 16 2 C7.585 2.495 7.585 2.495 -1 3 C-0.67 2.01 -0.34 1.02 0 0 Z " fill="#ABA69C" transform="translate(425,694)"/>
<path d="M0 0 C1.37562854 1.28965176 2.70766393 2.62689293 4 4 C4 4.66 4 5.32 4 6 C8.95 6 13.9 6 19 6 C19.33 5.01 19.66 4.02 20 3 C20 3.66 20 4.32 20 5 C20.66 5.33 21.32 5.66 22 6 C19.08453865 8.91546135 16.03006417 8.44470706 12.125 8.5 C11.40441406 8.54125 10.68382812 8.5825 9.94140625 8.625 C7.8203125 8.65625 7.8203125 8.65625 4 8 C0 3.36448598 0 3.36448598 0 0 Z " fill="#9F9990" transform="translate(241,778)"/>
<path d="M0 0 C0.66 0.33 1.32 0.66 2 1 C0.989375 1.66 -0.02125 2.32 -1.0625 3 C-4.77397292 5.62207297 -7.49363039 8.69729998 -10.32421875 12.23046875 C-12.09216725 14.09732346 -13.64942846 15.00139118 -16 16 C-15 14 -14 12 -13 10 C-12.34 10 -11.68 10 -11 10 C-10.67 9.01 -10.34 8.02 -10 7 C-7.71484375 5.17578125 -7.71484375 5.17578125 -4.9375 3.3125 C-4.01839844 2.68988281 -3.09929687 2.06726563 -2.15234375 1.42578125 C-1.44207031 0.95527344 -0.73179687 0.48476562 0 0 Z " fill="#B3AEA4" transform="translate(421,209)"/>
<path d="M0 0 C0.33 0 0.66 0 1 0 C1.01458252 0.55985596 1.02916504 1.11971191 1.04418945 1.6965332 C1.11871352 4.23588137 1.21535581 6.77392078 1.3125 9.3125 C1.33505859 10.19357422 1.35761719 11.07464844 1.38085938 11.98242188 C1.41630859 12.82998047 1.45175781 13.67753906 1.48828125 14.55078125 C1.51446533 15.33106689 1.54064941 16.11135254 1.56762695 16.9152832 C2.0931671 19.44921166 3.0408526 20.36927777 5 22 C3.35 22 1.7 22 0 22 C0 14.74 0 7.48 0 0 Z " fill="#9E988E" transform="translate(797,709)"/>
<path d="M0 0 C0.33 0.66 0.66 1.32 1 2 C-0.28062485 3.7074998 -1.61767557 5.37373596 -3 7 C-3.66 7 -4.32 7 -5 7 C-5.33 7.99 -5.66 8.98 -6 10 C-6.33 9.34 -6.66 8.68 -7 8 C-6.21366078 6.85050412 -5.42073742 5.70551011 -4.625 4.5625 C-4.18414062 3.92441406 -3.74328125 3.28632813 -3.2890625 2.62890625 C-2 1 -2 1 0 0 Z " fill="#B4AFA6" transform="translate(263,268)"/>
<path d="M0 0 C4.43458973 1.3937282 6.87378374 3.60582235 10 7 C5.58738468 5.79655946 2.95916118 4.52823064 0 1 C0 0.67 0 0.34 0 0 Z " fill="#B4AFA5" transform="translate(600,209)"/>
<path d="M0 0 C0.33 0.66 0.66 1.32 1 2 C-0.28627711 3.17260611 -1.57919783 4.3379283 -2.875 5.5 C-3.59429688 6.1496875 -4.31359375 6.799375 -5.0546875 7.46875 C-7 9 -7 9 -9 9 C-7.48328036 4.44984107 -3.83108947 2.49942736 0 0 Z " fill="#C8C2B7" transform="translate(697,699)"/>
<path d="M0 0 C1.04449911 3.13349732 0.93423645 3.98968256 0 7 C-0.66 7 -1.32 7 -2 7 C-2.66 8.65 -3.32 10.3 -4 12 C-4.33 11.34 -4.66 10.68 -5 10 C-4.00390625 7.6171875 -4.00390625 7.6171875 -2.5625 4.875 C-1.85287109 3.50988281 -1.85287109 3.50988281 -1.12890625 2.1171875 C-0.75636719 1.41851562 -0.38382813 0.71984375 0 0 Z " fill="#ACA79A" transform="translate(621,478)"/>
<path d="M0 0 C0.66 0.33 1.32 0.66 2 1 C4.54615009 1.23172827 7.07396225 1.41894529 9.625 1.5625 C10.33140625 1.60568359 11.0378125 1.64886719 11.765625 1.69335938 C13.51018537 1.79944751 15.25506697 1.90022889 17 2 C17 2.33 17 2.66 17 3 C11.39 3 5.78 3 0 3 C0 2.01 0 1.02 0 0 Z " fill="#A7A199" transform="translate(425,783)"/>
<path d="M0 0 C0.33 0 0.66 0 1 0 C1 2.64 1 5.28 1 8 C0.67 8 0.34 8 0 8 C0 5.36 0 2.72 0 0 Z " fill="#C5C0B6" transform="translate(465,712)"/>
<path d="M0 0 C1.65 0 3.3 0 5 0 C3.02 0.99 3.02 0.99 1 2 C0.67 1.34 0.34 0.68 0 0 Z " fill="#C5C0B5" transform="translate(713,709)"/>
<path d="M0 0 C0.99 0.495 0.99 0.495 2 1 C1.67 1.99 1.34 2.98 1 4 C0.67 2.68 0.34 1.36 0 0 Z " fill="#C7C0B6" transform="translate(490,747)"/>
<path d="M0 0 C0.33 0 0.66 0 1 0 C1 1.65 1 3.3 1 5 C0.67 5 0.34 5 0 5 C0 3.35 0 1.7 0 0 Z " fill="#C6C0B6" transform="translate(465,739)"/>
<path d="M0 0 C0.33 0 0.66 0 1 0 C1 1.65 1 3.3 1 5 C0.67 5 0.34 5 0 5 C0 3.35 0 1.7 0 0 Z " fill="#C5BFB5" transform="translate(465,723)"/>
<path d="M0 0 C1.32 0.33 2.64 0.66 4 1 C3.01 1.495 3.01 1.495 2 2 C1.34 1.34 0.68 0.68 0 0 Z " fill="#C6C0B6" transform="translate(719,709)"/>
<path d="M0 0 C4 1 4 1 4 1 Z " fill="#B8B2A9" transform="translate(711,789)"/>
<path d="M0 0 C4 1 4 1 4 1 Z " fill="#B9B3AB" transform="translate(327,789)"/>
<path d="M0 0 C4 1 4 1 4 1 Z " fill="#B8B4AA" transform="translate(320,789)"/>
<path d="M0 0 C1 4 1 4 1 4 Z " fill="#C5C0B6" transform="translate(348,732)"/>
<path d="M0 0 C0.66 0.66 1.32 1.32 2 2 C1.01 2.495 1.01 2.495 0 3 C0 2.01 0 1.02 0 0 Z " fill="#C3BDB2" transform="translate(203,725)"/>
<path d="M0 0 C4 1 4 1 4 1 Z " fill="#C7C1B7" transform="translate(723,710)"/>
<path d="M0 0 C4 1 4 1 4 1 Z " fill="#C9C4BA" transform="translate(705,295)"/>
<path d="M0 0 C4 1 4 1 4 1 Z " fill="#C0BDB3" transform="translate(440,200)"/>
<path d="M0 0 C3 1 3 1 3 1 Z " fill="#BBB4AA" transform="translate(705,788)"/>
<path d="" fill="#C0BBB1" transform="translate(0,0)"/>
<path d="" fill="#C4BEB4" transform="translate(0,0)"/>
<path d="M0 0 C3 1 3 1 3 1 Z " fill="#C3BDB4" transform="translate(620,761)"/>
<path d="" fill="#C4BDB3" transform="translate(0,0)"/>
<path d="" fill="#C8C2B8" transform="translate(0,0)"/>
<path d="" fill="#C7C3B7" transform="translate(0,0)"/>
<path d="" fill="#C6C0B6" transform="translate(0,0)"/>
<path d="M0 0 C0.99 0.495 0.99 0.495 2 1 C1.01 1.495 1.01 1.495 0 2 C0 1.34 0 0.68 0 0 Z " fill="#C9C4BA" transform="translate(799,710)"/>
<path d="" fill="#C5C0B7" transform="translate(0,0)"/>
<path d="M0 0 C2 1 2 1 2 1 Z " fill="#B9B3AA" transform="translate(721,789)"/>
<path d="M0 0 C2 1 2 1 2 1 Z " fill="#BAB4AB" transform="translate(314,788)"/>
<path d="" fill="#C2BCB2" transform="translate(0,0)"/>
<path d="" fill="#C0BBB1" transform="translate(0,0)"/>
<path d="" fill="#C2BDB2" transform="translate(0,0)"/>
<path d="" fill="#C4BDB3" transform="translate(0,0)"/>
<path d="M0 0 C2 1 2 1 2 1 Z " fill="#BFB7AF" transform="translate(837,768)"/>
<path d="M0 0 C2 1 2 1 2 1 Z " fill="#C5BEB4" transform="translate(729,768)"/>
<path d="M0 0 C2 1 2 1 2 1 Z " fill="#C9C2B8" transform="translate(336,768)"/>
<path d="" fill="#C5BEB5" transform="translate(0,0)"/>
<path d="" fill="#C3BDB5" transform="translate(0,0)"/>
<path d="" fill="#C5BFB4" transform="translate(0,0)"/>
<path d="" fill="#C7C0B7" transform="translate(0,0)"/>
<path d="" fill="#C5C0B4" transform="translate(0,0)"/>
<path d="" fill="#C7C1B8" transform="translate(0,0)"/>
<path d="" fill="#C3BCB4" transform="translate(0,0)"/>
<path d="" fill="#C7C2B9" transform="translate(0,0)"/>
<path d="M0 0 C2 1 2 1 2 1 Z " fill="#C5BFB5" transform="translate(746,736)"/>
<path d="M0 0 C2 1 2 1 2 1 Z " fill="#C6BFB6" transform="translate(741,736)"/>
<path d="M0 0 C2 1 2 1 2 1 Z " fill="#C4BEB3" transform="translate(733,736)"/>
<path d="M0 0 C2 1 2 1 2 1 Z " fill="#C5BEB4" transform="translate(725,736)"/>
<path d="" fill="#C7C2B5" transform="translate(0,0)"/>
<path d="" fill="#C7C1B5" transform="translate(0,0)"/>
<path d="M0 0 C2 1 2 1 2 1 Z " fill="#C7C0B5" transform="translate(821,728)"/>
<path d="" fill="#C6C1B5" transform="translate(0,0)"/>
<path d="M0 0 C2 1 2 1 2 1 Z " fill="#CAC3B7" transform="translate(708,711)"/>
<path d="M0 0 C2 1 2 1 2 1 Z " fill="#C6C1B4" transform="translate(332,710)"/>
<path d="M0 0 C2 1 2 1 2 1 Z " fill="#C3BEB4" transform="translate(317,710)"/>
<path d="" fill="#C4BFB5" transform="translate(0,0)"/>
<path d="M0 0 C2 1 2 1 2 1 Z " fill="#C5C0B6" transform="translate(334,691)"/>
<path d="" fill="#BFBBB2" transform="translate(0,0)"/>
<path d="" fill="#BFBBB2" transform="translate(0,0)"/>
<path d="" fill="#C7C1B7" transform="translate(0,0)"/>
<path d="" fill="#C9C3B9" transform="translate(0,0)"/>
<path d="M0 0 C2 1 2 1 2 1 Z " fill="#C9C4BC" transform="translate(697,295)"/>
<path d="M0 0 C2 1 2 1 2 1 Z " fill="#C5BFB5" transform="translate(629,242)"/>
<path d="" fill="#4B4B49" transform="translate(0,0)"/>
<path d="" fill="#B7B3A8" transform="translate(0,0)"/>
<path d="" fill="#B8B4AB" transform="translate(0,0)"/>
<path d="" fill="#B7B0A7" transform="translate(0,0)"/>
<path d="" fill="#B6AFA7" transform="translate(0,0)"/>
<path d="" fill="#B4B0A6" transform="translate(0,0)"/>
<path d="" fill="#B4AEA5" transform="translate(0,0)"/>
<path d="" fill="#B8B1A9" transform="translate(0,0)"/>
<path d="" fill="#A7A29B" transform="translate(0,0)"/>
<path d="" fill="#B6B3AA" transform="translate(0,0)"/>
<path d="" fill="#B1ADA3" transform="translate(0,0)"/>
<path d="" fill="#B8B4AA" transform="translate(0,0)"/>
<path d="" fill="#BFBAB0" transform="translate(0,0)"/>
<path d="" fill="#BCB8AD" transform="translate(0,0)"/>
<path d="" fill="#BFB9B1" transform="translate(0,0)"/>
<path d="" fill="#BEB7AF" transform="translate(0,0)"/>
<path d="" fill="#BBB7AE" transform="translate(0,0)"/>
<path d="" fill="#C4BEB4" transform="translate(0,0)"/>
<path d="" fill="#C0BBB1" transform="translate(0,0)"/>
<path d="" fill="#C3BCB3" transform="translate(0,0)"/>
<path d="" fill="#C1BCB0" transform="translate(0,0)"/>
<path d="" fill="#C1BAB2" transform="translate(0,0)"/>
<path d="" fill="#BEBBAE" transform="translate(0,0)"/>
<path d="" fill="#C1BBB0" transform="translate(0,0)"/>
<path d="" fill="#C3BDB3" transform="translate(0,0)"/>
<path d="" fill="#C5BDB3" transform="translate(0,0)"/>
<path d="" fill="#C1BCB1" transform="translate(0,0)"/>
<path d="" fill="#C1BAB0" transform="translate(0,0)"/>
<path d="" fill="#CAC3BB" transform="translate(0,0)"/>
<path d="" fill="#C0BBB1" transform="translate(0,0)"/>
<path d="" fill="#C5C0B6" transform="translate(0,0)"/>
<path d="" fill="#C5BDB2" transform="translate(0,0)"/>
<path d="" fill="#C5C0B6" transform="translate(0,0)"/>
<path d="" fill="#C2BCB3" transform="translate(0,0)"/>
<path d="" fill="#C3BBB2" transform="translate(0,0)"/>
<path d="" fill="#C3BEB2" transform="translate(0,0)"/>
<path d="" fill="#C4BEB3" transform="translate(0,0)"/>
<path d="" fill="#C7C0B5" transform="translate(0,0)"/>
<path d="" fill="#C6BEB4" transform="translate(0,0)"/>
<path d="" fill="#C4BDB4" transform="translate(0,0)"/>
<path d="" fill="#C2BCB0" transform="translate(0,0)"/>
<path d="" fill="#C3BEB2" transform="translate(0,0)"/>
<path d="" fill="#C3BEB4" transform="translate(0,0)"/>
<path d="" fill="#C5BEB5" transform="translate(0,0)"/>
<path d="" fill="#C2BBB2" transform="translate(0,0)"/>
<path d="" fill="#C3BEB4" transform="translate(0,0)"/>
<path d="" fill="#C6BDB3" transform="translate(0,0)"/>
<path d="" fill="#C3BCB4" transform="translate(0,0)"/>
<path d="" fill="#C6BFB6" transform="translate(0,0)"/>
<path d="" fill="#C7BFB6" transform="translate(0,0)"/>
<path d="" fill="#C4BEB5" transform="translate(0,0)"/>
<path d="" fill="#BFBBB0" transform="translate(0,0)"/>
<path d="" fill="#C3BEB2" transform="translate(0,0)"/>
<path d="" fill="#C6C2B7" transform="translate(0,0)"/>
<path d="" fill="#C6C2B6" transform="translate(0,0)"/>
<path d="" fill="#C5BEB3" transform="translate(0,0)"/>
<path d="" fill="#C6C1B7" transform="translate(0,0)"/>
<path d="" fill="#C4BEB6" transform="translate(0,0)"/>
<path d="" fill="#C8C1B8" transform="translate(0,0)"/>
<path d="" fill="#C6C2B6" transform="translate(0,0)"/>
<path d="" fill="#C5BCB3" transform="translate(0,0)"/>
<path d="" fill="#C4BFB4" transform="translate(0,0)"/>
<path d="" fill="#CAC0B5" transform="translate(0,0)"/>
<path d="" fill="#C4C2B6" transform="translate(0,0)"/>
<path d="" fill="#C8C0B6" transform="translate(0,0)"/>
<path d="" fill="#C4BEB4" transform="translate(0,0)"/>
<path d="" fill="#C6C0B6" transform="translate(0,0)"/>
<path d="" fill="#B8B2A9" transform="translate(0,0)"/>
<path d="" fill="#BEB9AF" transform="translate(0,0)"/>
<path d="" fill="#C6C0B6" transform="translate(0,0)"/>
<path d="" fill="#C7C3B8" transform="translate(0,0)"/>
<path d="" fill="#CBC2B8" transform="translate(0,0)"/>
<path d="" fill="#C8C1B6" transform="translate(0,0)"/>
<path d="" fill="#C8C0B6" transform="translate(0,0)"/>
<path d="" fill="#C9C3B9" transform="translate(0,0)"/>
<path d="" fill="#C6C0B7" transform="translate(0,0)"/>
<path d="" fill="#C9C4B7" transform="translate(0,0)"/>
<path d="" fill="#C3BBB3" transform="translate(0,0)"/>
<path d="" fill="#CBC3BA" transform="translate(0,0)"/>
<path d="" fill="#C6C2B5" transform="translate(0,0)"/>
<path d="" fill="#C4BEB5" transform="translate(0,0)"/>
<path d="" fill="#C4C2B6" transform="translate(0,0)"/>
<path d="" fill="#C2BDB3" transform="translate(0,0)"/>
<path d="" fill="#C7C4B7" transform="translate(0,0)"/>
<path d="" fill="#C5C1B7" transform="translate(0,0)"/>
<path d="" fill="#C6BFB7" transform="translate(0,0)"/>
<path d="" fill="#C6C1B6" transform="translate(0,0)"/>
<path d="" fill="#C6C0B6" transform="translate(0,0)"/>
<path d="" fill="#C8C3B9" transform="translate(0,0)"/>
<path d="" fill="#C3BFB4" transform="translate(0,0)"/>
<path d="" fill="#C9C3B9" transform="translate(0,0)"/>
<path d="" fill="#C9C1BA" transform="translate(0,0)"/>
<path d="" fill="#C7C1B6" transform="translate(0,0)"/>
<path d="" fill="#C4BFB6" transform="translate(0,0)"/>
<path d="" fill="#BEBDB3" transform="translate(0,0)"/>
<path d="" fill="#C7C0B4" transform="translate(0,0)"/>
<path d="" fill="#C8C2B8" transform="translate(0,0)"/>
<path d="" fill="#C6BFB2" transform="translate(0,0)"/>
<path d="" fill="#C5BDB4" transform="translate(0,0)"/>
<path d="" fill="#C6C1B7" transform="translate(0,0)"/>
<path d="" fill="#C5C0B5" transform="translate(0,0)"/>
<path d="" fill="#C9C3B7" transform="translate(0,0)"/>
<path d="" fill="#C7C4B9" transform="translate(0,0)"/>
<path d="" fill="#C5BFB3" transform="translate(0,0)"/>
<path d="" fill="#C8C2B9" transform="translate(0,0)"/>
<path d="" fill="#C4BDB1" transform="translate(0,0)"/>
<path d="" fill="#C6C1B6" transform="translate(0,0)"/>
<path d="" fill="#C6BFB6" transform="translate(0,0)"/>
<path d="" fill="#C7BFB7" transform="translate(0,0)"/>
<path d="" fill="#C6C0B7" transform="translate(0,0)"/>
<path d="" fill="#C5BFB6" transform="translate(0,0)"/>
<path d="" fill="#C6C0B6" transform="translate(0,0)"/>
<path d="" fill="#C5C0B7" transform="translate(0,0)"/>
<path d="" fill="#CBC5BC" transform="translate(0,0)"/>
<path d="" fill="#C6C0B6" transform="translate(0,0)"/>
<path d="" fill="#C9C3B8" transform="translate(0,0)"/>
<path d="" fill="#CCC6BA" transform="translate(0,0)"/>
<path d="" fill="#C5C1B6" transform="translate(0,0)"/>
<path d="" fill="#C8C1B8" transform="translate(0,0)"/>
<path d="" fill="#C5BFB4" transform="translate(0,0)"/>
<path d="" fill="#C6BEB4" transform="translate(0,0)"/>
<path d="" fill="#C9C2B7" transform="translate(0,0)"/>
<path d="" fill="#CAC4B9" transform="translate(0,0)"/>
<path d="" fill="#CAC4BB" transform="translate(0,0)"/>
<path d="" fill="#C6C0B5" transform="translate(0,0)"/>
<path d="" fill="#C7C1B6" transform="translate(0,0)"/>
<path d="" fill="#C9C2B6" transform="translate(0,0)"/>
<path d="" fill="#C5BEB8" transform="translate(0,0)"/>
<path d="" fill="#C6C1B5" transform="translate(0,0)"/>
<path d="" fill="#C8C0B6" transform="translate(0,0)"/>
<path d="" fill="#C8C2B7" transform="translate(0,0)"/>
<path d="" fill="#C8C1B9" transform="translate(0,0)"/>
<path d="" fill="#C6BFB6" transform="translate(0,0)"/>
<path d="" fill="#CAC3B9" transform="translate(0,0)"/>
<path d="" fill="#C5C0B8" transform="translate(0,0)"/>
<path d="" fill="#C5C0B8" transform="translate(0,0)"/>
<path d="" fill="#C7C2B9" transform="translate(0,0)"/>
<path d="" fill="#C4BFB6" transform="translate(0,0)"/>
<path d="" fill="#C5BEB6" transform="translate(0,0)"/>
<path d="" fill="#C6BFB6" transform="translate(0,0)"/>
<path d="" fill="#C7C1B9" transform="translate(0,0)"/>
<path d="" fill="#B6B0AA" transform="translate(0,0)"/>
<path d="" fill="#C6C0B7" transform="translate(0,0)"/>
<path d="" fill="#C6BDB6" transform="translate(0,0)"/>
<path d="" fill="#B4AFA7" transform="translate(0,0)"/>
<path d="" fill="#C9C3BA" transform="translate(0,0)"/>
<path d="" fill="#C7C2B9" transform="translate(0,0)"/>
<path d="" fill="#C5C1BA" transform="translate(0,0)"/>
<path d="" fill="#C6C3B5" transform="translate(0,0)"/>
<path d="" fill="#C6C1B8" transform="translate(0,0)"/>
<path d="" fill="#BEBAB4" transform="translate(0,0)"/>
<path d="" fill="#C0BDB3" transform="translate(0,0)"/>
<path d="" fill="#C0B9B1" transform="translate(0,0)"/>
<path d="" fill="#BDBAB3" transform="translate(0,0)"/>
<path d="" fill="#C7C0B7" transform="translate(0,0)"/>
<path d="" fill="#C7C2B7" transform="translate(0,0)"/>
<path d="" fill="#C8C3BA" transform="translate(0,0)"/>
<path d="" fill="#C8C2B7" transform="translate(0,0)"/>
<path d="" fill="#C8C3BB" transform="translate(0,0)"/>
<path d="" fill="#C6C2B9" transform="translate(0,0)"/>
<path d="" fill="#C7C2B8" transform="translate(0,0)"/>
<path d="" fill="#C2BBB3" transform="translate(0,0)"/>
<path d="" fill="#BEB8B0" transform="translate(0,0)"/>
<path d="" fill="#BBB7AE" transform="translate(0,0)"/>
<path d="" fill="#BDB6B0" transform="translate(0,0)"/>
<path d="" fill="#BEBAB3" transform="translate(0,0)"/>
<path d="" fill="#BCB7AF" transform="translate(0,0)"/>
<path d="" fill="#BCB8AE" transform="translate(0,0)"/>
<path d="" fill="#BCB8AF" transform="translate(0,0)"/>
<path d="" fill="#BDBAB1" transform="translate(0,0)"/>
<path d="" fill="#BDB9B1" transform="translate(0,0)"/>
<path d="" fill="#C0BCB2" transform="translate(0,0)"/>
<path d="" fill="#BEBBB1" transform="translate(0,0)"/>
<path d="" fill="#C3BCB5" transform="translate(0,0)"/>
<path d="" fill="#C4C0B7" transform="translate(0,0)"/>
<path d="" fill="#BFBBB3" transform="translate(0,0)"/>
<path d="" fill="#BFBBB1" transform="translate(0,0)"/>
<path d="" fill="#C0BAB0" transform="translate(0,0)"/>
<path d="" fill="#BFBBB1" transform="translate(0,0)"/>
<path d="" fill="#BEBAB1" transform="translate(0,0)"/>
<path d="" fill="#C2BDB2" transform="translate(0,0)"/>
</svg>
